PathFileType  4	(X/Y/Z) C:\Users\antoi\Documents\MyRepositories\mobilecap\ResultsAnalysis
DataRate	CameraRate	NumFrames	NumMarkers	Units	OrigDataRate	OrigDataStartFrame	OrigNumFrames
100.0	100.0	4	51	mm	100.0	73	291
Frame#	Time	r_knee			r_shank_antsup			r_ankle			r_calc			r_5meta			r_toe			L_knee			L_shank_antsup			L_ankle			L_calc			L_5meta			L_toe			r_sh2			r_sh3			r_sh4			L_sh2			L_sh3			r_thigh1			r_thigh2			r_thigh3			r_thigh4			r_thigh5			L_thigh1			L_thigh2			L_thigh3			L_thigh4			r.ASIS			r.PSIS			L.ASIS			L.PSIS			C7			R_Shoulder			L_Shoulder			R_Sternum			L_Sternum			R_humerus			R_elbow_med			R_elbow_lat			R_forearm			R_wrist_radius			R_wrist_ulna			L_humerus			L_elbow_med			L_elbow_lat			L_forearm			L_wrist_radius			L_wrist_ulna			R_HJC			L_HJC			R_HJC_reg			L_HJC_reg			
		X1	Y1	Z1	X2	Y2	Z2	X3	Y3	Z3	X4	Y4	Z4	X5	Y5	Z5	X6	Y6	Z6	X7	Y7	Z7	X8	Y8	Z8	X9	Y9	Z9	X10	Y10	Z10	X11	Y11	Z11	X12	Y12	Z12	X13	Y13	Z13	X14	Y14	Z14	X15	Y15	Z15	X16	Y16	Z16	X17	Y17	Z17	X18	Y18	Z18	X19	Y19	Z19	X20	Y20	Z20	X21	Y21	Z21	X22	Y22	Z22	X23	Y23	Z23	X24	Y24	Z24	X25	Y25	Z25	X26	Y26	Z26	X27	Y27	Z27	X28	Y28	Z28	X29	Y29	Z29	X30	Y30	Z30	X31	Y31	Z31	X32	Y32	Z32	X33	Y33	Z33	X34	Y34	Z34	X35	Y35	Z35	X36	Y36	Z36	X37	Y37	Z37	X38	Y38	Z38	X39	Y39	Z39	X40	Y40	Z40	X41	Y41	Z41	X42	Y42	Z42	X43	Y43	Z43	X44	Y44	Z44	X45	Y45	Z45	X46	Y46	Z46	X47	Y47	Z47	X48	Y48	Z48	X49	Y49	Z49	X50	Y50	Z50	X51	Y51	Z51	

73	0.72000000	-1069.10710	760.23061	-429.29996	-1096.22607	724.16209	-402.03149	-1243.04048	406.29100	-466.48289	-1304.65957	363.96377	-519.91582	-1129.87393	347.15285	-423.37488	-1083.43247	370.31863	-473.04495	-1073.29095	760.41267	-723.87199	-1061.03604	671.46699	-736.55883	-1243.07806	406.28602	-707.38502	-1312.51617	365.93631	-659.99949	-1130.62683	351.61382	-729.76690	-1087.90424	369.76939	-673.74709	-1145.65684	619.65988	-401.75265	-1031.36596	700.82457	-436.95002	-1082.22072	599.74591	-454.86651	-1136.19588	716.92885	-748.84256	-1190.08274	608.90380	-747.53236	-1124.56090	1054.41363	-477.85956	-1063.14716	962.64912	-465.09641	-1072.68948	936.67146	-402.41961	-1180.03054	1028.12445	-382.90144	-1123.21470	928.20253	-379.54843	-1177.03179	1059.07557	-749.17267	-1117.92962	928.91864	-756.08359	-1281.29526	1009.65931	-747.53737	-1222.22940	884.83547	-728.73863	-1151.54389	1142.51616	-449.35453	-1305.52364	1259.49612	-526.82219	-1158.91453	1122.16937	-683.05815	-1305.44574	1259.10026	-622.87854	-936.24686	1578.37715	-598.08434	-885.31903	1490.96100	-430.28494	-916.43786	1480.14719	-759.34017	-910.59412	1430.01650	-576.41851	-914.99109	1423.61465	-606.74549	-1092.35678	1379.94383	-331.80739	-1196.41150	1397.09481	-362.83962	-1181.57283	1371.07875	-309.00308	-1287.24906	1287.31393	-267.83500	-1375.75185	1227.40917	-260.75370	-1385.30143	1265.73071	-241.05587	-1129.63366	1380.08522	-838.23748	-1235.63383	1376.47387	-786.08880	-1225.74301	1368.18930	-846.07624	-1333.13876	1288.37114	-890.79181	-1421.08023	1224.20961	-900.86703	-1438.71897	1265.29900	-900.90983	-1257.55848	1105.28734	-478.66805	-1268.58783	1106.23166	-669.01661	-1250.03277	1102.62602	-481.40752	-1249.90599	1101.98894	-636.31120	
74	0.73000000	-1065.39639	758.23156	-428.83408	-1092.59372	722.45181	-401.88783	-1242.75482	406.63327	-466.54684	-1304.51544	364.07071	-519.88070	-1130.06689	346.48914	-423.85213	-1083.40190	369.74148	-473.18429	-1069.52433	758.41079	-723.43397	-1057.79656	669.57755	-736.46994	-1242.66160	406.62762	-707.35540	-1312.42529	366.05077	-659.78985	-1130.55831	351.61783	-729.90726	-1087.76355	369.57384	-673.72532	-1142.86952	618.55511	-401.60846	-1027.90588	698.54949	-436.60844	-1079.85500	598.00754	-454.55333	-1132.43904	716.09533	-748.77362	-1187.56742	608.59732	-747.27370	-1123.24891	1051.85928	-477.34926	-1060.89099	960.49141	-464.56946	-1070.33696	934.49525	-401.77737	-1178.42612	1025.06423	-382.53921	-1120.89454	925.68206	-379.18456	-1175.78646	1056.02848	-748.80028	-1115.46533	926.42177	-756.00214	-1279.55820	1005.67435	-747.23235	-1219.47109	881.43293	-728.33546	-1150.28492	1137.65791	-449.00656	-1303.08155	1255.85480	-526.57093	-1157.68667	1117.96588	-684.68584	-1302.95426	1255.65597	-622.49656	-930.10196	1570.08578	-597.79556	-880.31690	1482.00688	-429.86834	-911.19946	1471.02692	-759.27486	-905.79669	1421.44702	-576.08096	-910.21712	1415.04730	-606.25081	-1087.94091	1370.89198	-332.28520	-1191.86196	1388.13515	-363.87299	-1177.31543	1362.24447	-309.93300	-1283.24069	1278.58532	-269.03248	-1371.53526	1218.41083	-262.24829	-1381.25243	1256.79663	-242.77595	-1124.89172	1371.12725	-837.42042	-1232.13525	1368.64687	-786.93934	-1220.94432	1359.91329	-845.41612	-1328.87836	1281.56192	-890.59535	-1417.56384	1218.42049	-901.02216	-1434.80952	1259.70480	-900.37184	-1256.33367	1101.07379	-479.19313	-1267.47774	1102.90384	-669.53025	-1249.35612	1098.17572	-481.52468	-1249.14981	1097.84984	-637.69187	
75	0.74000000	-1061.64496	756.10023	-428.49156	-1088.98967	720.83604	-401.39890	-1242.66151	406.82607	-466.47826	-1304.37070	364.16199	-519.74609	-1129.94269	346.43518	-423.62399	-1083.39072	369.33774	-473.23400	-1065.38646	756.42024	-723.32361	-1054.38448	667.66188	-736.58432	-1242.30880	406.90346	-707.32586	-1312.30881	366.19555	-659.69815	-1130.49031	351.60681	-730.07715	-1087.67064	369.37719	-673.76778	-1140.14881	617.27942	-401.81762	-1024.40341	696.18266	-436.18142	-1077.28076	596.03259	-454.36033	-1128.45443	715.17849	-748.85204	-1184.84707	608.28835	-747.35901	-1121.68173	1049.08017	-477.26697	-1058.46565	958.21007	-464.13663	-1067.85753	932.32734	-401.28000	-1176.57291	1021.97751	-382.13217	-1118.34689	923.11834	-378.84051	-1174.35897	1052.74887	-748.30361	-1112.83815	923.94703	-755.97041	-1277.69214	1001.66711	-746.81182	-1216.46363	877.96828	-728.08127	-1148.73925	1132.98363	-448.54947	-1300.34672	1252.22947	-526.40348	-1156.24546	1113.42013	-685.44061	-1300.42110	1251.67719	-622.77287	-924.20272	1562.03778	-597.53268	-875.39335	1473.37743	-429.34580	-905.97019	1462.18006	-759.10584	-901.05765	1413.23977	-575.67478	-905.46684	1406.79276	-605.73406	-1083.12784	1361.16565	-332.84025	-1187.06672	1378.09885	-364.69785	-1172.61542	1352.41217	-310.70364	-1278.33278	1268.24151	-270.19512	-1366.04764	1207.17876	-263.62465	-1376.23437	1245.65521	-244.45198	-1119.68705	1361.71659	-836.73092	-1227.81008	1359.85570	-787.55631	-1215.71503	1350.75372	-844.88334	-1323.75380	1273.01799	-890.17530	-1412.68870	1210.46022	-901.26890	-1429.81325	1251.80953	-899.99858	-1254.88039	1097.04244	-479.30966	-1266.04207	1098.98964	-669.64434	-1248.12755	1094.47394	-480.98152	-1248.24831	1093.57940	-637.93327	
76	0.75000000	-1057.82514	753.92248	-428.21614	-1085.15489	718.96805	-401.10998	-1242.40064	405.55681	-466.57340	-1304.27220	364.23482	-519.64054	-1129.85356	346.42903	-423.37813	-1083.36059	369.06869	-473.19930	-1060.95826	754.43549	-723.53804	-1050.97879	665.57668	-736.81916	-1242.00175	407.03925	-707.13518	-1312.17884	366.38572	-659.73740	-1130.45340	351.56298	-730.19015	-1087.58457	369.13258	-673.79017	-1137.72221	615.95104	-401.93944	-1020.86264	693.75524	-435.62427	-1074.60525	593.81969	-454.13708	-1124.41516	713.90517	-748.65808	-1182.13188	607.78355	-747.40149	-1119.97852	1046.46525	-477.33136	-1055.89701	955.97663	-463.80830	-1065.06031	930.25711	-400.83746	-1174.51354	1018.88571	-381.70906	-1115.48409	920.56148	-378.35582	-1172.76425	1049.40764	-747.94713	-1109.86286	921.53365	-756.16614	-1275.65952	997.63887	-746.40088	-1213.25104	874.39886	-727.75901	-1146.80556	1128.38561	-448.06587	-1297.40914	1248.62471	-526.26209	-1154.68987	1108.61075	-685.72876	-1297.77495	1247.25404	-623.39874	-918.54491	1554.26753	-597.28677	-870.61298	1465.08561	-428.86499	-900.72538	1453.61585	-758.65489	-896.37914	1405.30706	-575.05683	-900.77797	1398.79894	-605.15485	-1077.85941	1350.91386	-333.26974	-1181.91063	1366.93032	-365.33256	-1167.39643	1341.49648	-311.26229	-1272.28855	1256.19185	-271.07463	-1359.00823	1193.97209	-264.72221	-1370.13808	1232.32315	-246.12934	-1114.03637	1351.89355	-836.21867	-1221.64243	1349.75773	-786.52800	-1210.07755	1340.70526	-844.44059	-1317.78184	1262.77956	-889.69240	-1406.48906	1200.27582	-901.61909	-1423.74357	1241.54805	-899.77455	-1253.12504	1093.08719	-479.14471	-1264.39413	1094.64341	-669.47598	-1246.52021	1091.28114	-480.10843	-1247.11243	1089.06530	-637.57236	
